<?xml version="1.0" encoding="iso-8859-1"?><!-- Generator: Adobe Illustrator 23.0.0, SVG Export Plug-In . SVG Version: 6.00 Build 0)  --><svg fill="#FFFFFF" xmlns="http://www.w3.org/2000/svg" xmlns:xlink="http://www.w3.org/1999/xlink" viewBox="0 0 24 24" width="24px" height="24px"><g id="outlined_9_"><g><path d="M15.504,17h-2.535L13,13.372c0-0.367-0.415-0.512-0.619-0.206l-3.297,5.095C8.865,18.59,9.1,19.031,9.496,19.031h2.535L12,22.628c0,0.367,0.476,0.512,0.68,0.206l3.236-5.095C16.135,17.41,15.9,17,15.504,17z"/></g></g><path d="M19.355,9.036C18.674,5.595,15.641,3,12,3C9.108,3,6.603,4.639,5.352,7.036c-3.272,0.352-5.756,3.332-5.297,6.786C0.455,16.835,3.182,19,6.221,19h0.832c-0.121-0.631-0.005-1.289,0.352-1.825l3.312-5.118c0.441-0.662,1.17-1.057,1.95-1.057h0C13.953,11,15,12.064,15,13.389L14.986,15h0.518c0.927,0,1.772,0.502,2.205,1.311c0.429,0.802,0.38,1.774-0.105,2.5L17.484,19h1.321c2.568,0,4.865-1.852,5.16-4.403C24.303,11.689,22.141,9.235,19.355,9.036z"/></svg>